# xmcd
#
# Track frame offsets:
#	150
#	11218
#	25037
#	38390
#	50900
#	63398
#	75365
#	88398
#	102933
#	113696
#	126731
#	140821
#	152288
#	164950
#	180232
#	190637
#	202137
#	214324
#
# Disc length: 2999 seconds
#
# Revision: 2
# Processed by: cddbd v1.5.2PL0 Copyright (c) Steve Scherf et al.
# Submitted via: audiograbber 1.83.01
#
DISCID=000bb512
DTITLE=Sonny Terry - Blues, (The)
DYEAR=2004
DGENRE=Blues
TTITLE0=Baby Let's Have Some Fun
TTITLE1=Four O'clock Blues
TTITLE2=Lonesome Room
TTITLE3=That Woman is Killing Me
TTITLE4=Harmonica Train
TTITLE5=Harmonica Hop
TTITLE6=Doggin' My Heart Around
TTITLE7=John Henry (Trad)
TTITLE8=Hound Dog Holler
TTITLE9=Louise Blues
TTITLE10=Goodbye Lead Belly
TTITLE11=Custard Pie (Trad)
TTITLE12=Old Woman Blues
TTITLE13=Moanin' and Mournin'
TTITLE14=Hootin' and Jumpin'
TTITLE15=Sonny is Drinking
TTITLE16=I'm Gonna Rock Your Wig
TTITLE17=Hooray Hooray
EXTD=
EXTT0=
EXTT1=
EXTT2=
EXTT3=
EXTT4=
EXTT5=
EXTT6=
EXTT7=
EXTT8=
EXTT9=(Temple)
EXTT10=
EXTT11=
EXTT12=(Fuller)
EXTT13=
EXTT14=
EXTT15=
EXTT16=
EXTT17=
PLAYORDER=
